# xmcd
#
# Track frame offsets:
#	150
#	19245
#	42278
#	57132
#	73524
#	92256
#	109404
#	129054
#	143818
#	159313
#	178350
#	197549
#	211986
#
# Disc length: 3160 seconds
#
# Revision: 3
# Processed by: cddbd v1.5.2PL0 Copyright (c) Steve Scherf et al.
# Submitted via: EasyCDDAExtractor 15.3.0.1
#
DISCID=ad0c560d
DTITLE=Pablo Alboran - Prometo
DYEAR=2017
DGENRE=Latin
TTITLE0=Saturno
TTITLE1=Prometo
TTITLE2=No Vaya A Ser
TTITLE3=Cuerda Al Corazon
TTITLE4=Lo Nuestro
TTITLE5=Vivir
TTITLE6=Tu Refugio
TTITLE7=La Llave
TTITLE8=Idiota
TTITLE9=Boca De Hule
TTITLE10=Curo Tus Labios
TTITLE11=Al Paraiso
TTITLE12=Prometo (Version Piano Y Cuerda)
EXTD=YEAR: 2017
EXTT0=
EXTT1=
EXTT2=
EXTT3=
EXTT4=
EXTT5=
EXTT6=
EXTT7=
EXTT8=
EXTT9=
EXTT10=
EXTT11=
EXTT12=
PLAYORDER=
